<svg id="visual" viewBox="0 0 960 540" width="960" height="540" xmlns="http://www.w3.org/2000/svg" xmlns:xlink="http://www.w3.org/1999/xlink" version="1.1"><rect x="0" y="0" width="960" height="540" fill="#001220"></rect><path d="M0 376L14.5 381.7C29 387.3 58 398.7 87.2 399.3C116.3 400 145.7 390 174.8 393C204 396 233 412 262 415.3C291 418.7 320 409.3 349 406.8C378 404.3 407 408.7 436.2 412.3C465.3 416 494.7 419 523.8 418.2C553 417.3 582 412.7 611 407.5C640 402.3 669 396.7 698 399.3C727 402 756 413 785.2 410.8C814.3 408.7 843.7 393.3 872.8 386.7C902 380 931 382 945.5 383L960 384L960 541L945.5 541C931 541 902 541 872.8 541C843.7 541 814.3 541 785.2 541C756 541 727 541 698 541C669 541 640 541 611 541C582 541 553 541 523.8 541C494.7 541 465.3 541 436.2 541C407 541 378 541 349 541C320 541 291 541 262 541C233 541 204 541 174.8 541C145.7 541 116.3 541 87.2 541C58 541 29 541 14.5 541L0 541Z" fill="#3b946a"></path><path d="M0 450L14.5 446.5C29 443 58 436 87.2 431.2C116.3 426.3 145.7 423.7 174.8 422.3C204 421 233 421 262 426C291 431 320 441 349 444C378 447 407 443 436.2 443.2C465.3 443.3 494.7 447.7 523.8 442.7C553 437.7 582 423.3 611 413.2C640 403 669 397 698 401.7C727 406.3 756 421.7 785.2 425.8C814.3 430 843.7 423 872.8 416.5C902 410 931 404 945.5 401L960 398L960 541L945.5 541C931 541 902 541 872.8 541C843.7 541 814.3 541 785.2 541C756 541 727 541 698 541C669 541 640 541 611 541C582 541 553 541 523.8 541C494.7 541 465.3 541 436.2 541C407 541 378 541 349 541C320 541 291 541 262 541C233 541 204 541 174.8 541C145.7 541 116.3 541 87.2 541C58 541 29 541 14.5 541L0 541Z" fill="#278f76"></path><path d="M0 437L14.5 442C29 447 58 457 87.2 458.5C116.3 460 145.7 453 174.8 450.2C204 447.3 233 448.7 262 449.5C291 450.3 320 450.7 349 452C378 453.3 407 455.7 436.2 454.7C465.3 453.7 494.7 449.3 523.8 447.8C553 446.3 582 447.7 611 452.5C640 457.3 669 465.7 698 469.5C727 473.3 756 472.7 785.2 469.3C814.3 466 843.7 460 872.8 459.8C902 459.7 931 465.3 945.5 468.2L960 471L960 541L945.5 541C931 541 902 541 872.8 541C843.7 541 814.3 541 785.2 541C756 541 727 541 698 541C669 541 640 541 611 541C582 541 553 541 523.8 541C494.7 541 465.3 541 436.2 541C407 541 378 541 349 541C320 541 291 541 262 541C233 541 204 541 174.8 541C145.7 541 116.3 541 87.2 541C58 541 29 541 14.5 541L0 541Z" fill="#198a7f"></path><path d="M0 472L14.5 471.5C29 471 58 470 87.2 473.8C116.3 477.7 145.7 486.3 174.8 486.8C204 487.3 233 479.7 262 477.2C291 474.7 320 477.3 349 481.2C378 485 407 490 436.2 492.5C465.3 495 494.7 495 523.8 492C553 489 582 483 611 481.2C640 479.3 669 481.7 698 483.3C727 485 756 486 785.2 487.2C814.3 488.3 843.7 489.7 872.8 489.5C902 489.3 931 487.7 945.5 486.8L960 486L960 541L945.5 541C931 541 902 541 872.8 541C843.7 541 814.3 541 785.2 541C756 541 727 541 698 541C669 541 640 541 611 541C582 541 553 541 523.8 541C494.7 541 465.3 541 436.2 541C407 541 378 541 349 541C320 541 291 541 262 541C233 541 204 541 174.8 541C145.7 541 116.3 541 87.2 541C58 541 29 541 14.5 541L0 541Z" fill="#198485"></path><path d="M0 516L14.5 516.7C29 517.3 58 518.7 87.2 516.2C116.3 513.7 145.7 507.3 174.8 505.7C204 504 233 507 262 506.2C291 505.3 320 500.7 349 500.8C378 501 407 506 436.2 504.3C465.3 502.7 494.7 494.3 523.8 491.3C553 488.3 582 490.7 611 491C640 491.3 669 489.7 698 489.5C727 489.3 756 490.7 785.2 490.7C814.3 490.7 843.7 489.3 872.8 492.8C902 496.3 931 504.7 945.5 508.8L960 513L960 541L945.5 541C931 541 902 541 872.8 541C843.7 541 814.3 541 785.2 541C756 541 727 541 698 541C669 541 640 541 611 541C582 541 553 541 523.8 541C494.7 541 465.3 541 436.2 541C407 541 378 541 349 541C320 541 291 541 262 541C233 541 204 541 174.8 541C145.7 541 116.3 541 87.2 541C58 541 29 541 14.5 541L0 541Z" fill="#267e88"></path></svg>