<?xml version="1.0" encoding="utf-8"?>
<!-- Generator: Adobe Illustrator 24.1.2, SVG Export Plug-In . SVG Version: 6.00 Build 0)  -->
<svg version="1.1" id="Layer_2" xmlns="http://www.w3.org/2000/svg" xmlns:xlink="http://www.w3.org/1999/xlink" x="0px" y="0px"
	 viewBox="0 0 586.5 534.8" style="enable-background:new 0 0 586.5 534.8;" xml:space="preserve">
<style type="text/css">
	.st0{fill:#FDB100;stroke:#F38518;stroke-width:1.5;stroke-miterlimit:10;}
	.st1{fill:#FFFFFF;}
	.st2{fill:none;stroke:#F38518;stroke-width:1.4671;stroke-linecap:round;stroke-linejoin:round;stroke-miterlimit:10;}
	.st3{fill:#FDB100;}
	.st4{fill:#A3685D;stroke:#6B423E;stroke-width:1.1003;stroke-miterlimit:10;}
	.st5{fill:#8989DC;stroke:#8078CC;stroke-width:1.1003;stroke-miterlimit:10;}
	.st6{fill:#ADA8E5;stroke:#8078CC;stroke-width:1.1003;stroke-miterlimit:10;}
	.st7{fill:#ADA8E5;stroke:#8078CC;stroke-width:2;stroke-miterlimit:10;}
	.st8{fill:#8715BC;stroke:#000000;stroke-width:0.7335;stroke-miterlimit:10;}
	.st9{fill:#A3685D;stroke:#6B423E;stroke-width:1.8407;stroke-linecap:round;stroke-linejoin:round;stroke-miterlimit:10;}
	.st10{fill:#543332;}
	.st11{fill:#172540;}
</style>
<g>
	<path class="st0" d="M304.4,399.7c0,0,12.9-38.6-11-55.1c-23.9-16.5-18.2-30.6,14.5-36.1c32.7-5.5,142.3-18.4,153.9-94.9
		C473.4,137,432.4,90.5,355.8,78.8s-227.1-28.8-253.5,33.1s-17.1,99.2,14.7,130.4s92.4,57.6,108.4,76.5s28.2,36.7,49.9,40.4
		c21.7,3.7,25.4,28.8,21.1,40.4C292.2,411.3,304.4,399.7,304.4,399.7z"/>
	<path class="st1" d="M109.4,72.6c0,0-32.7,26.5-36.9,35.7c-4.3,9.2-12.3,17,0,38.8s29.1,38.1,38.1,40s20.8,1.7,46.1-18
		s61.3-38.8,60.8-53.5c-0.5-14.7-22-85.7-53.7-75S109.4,72.6,109.4,72.6z"/>
	<path class="st0" d="M114,95.4c-2.8,2.9,1.8,9.8,5.8,13.4c4,3.5,9.7,12.3,11.1,18.2c1.4,5.9,5.2,12.8,12.5-2.1s16.5-23.6,7.8-34.8
		S114,95.4,114,95.4z"/>
	<path class="st2" d="M106.2,92.3c-2.8,2.9,1.8,9.8,5.8,13.4c4,3.5,9.7,12.3,11.1,18.2c1.4,5.9,5.2,12.8,12.5-2.1
		s16.5-23.6,7.8-34.8S106.2,92.3,106.2,92.3z"/>
	<path class="st1" d="M234.4,240c0,0-11.7,10.7-7.3,24.9c4.4,14.2,13.2,28.8,35.1,21.5c22-7.3,59.8-24.9,65.4-25.1
		s18.1,5.1,18.6,6.1c0.5,1,1.5-61.5-24.7-57.8C295.4,213.1,234.4,240,234.4,240z"/>
	<path class="st2" d="M105.2,67.5c-14.6,10.1-63.2,46-35.9,78.2c47,75.7,75.1,15.4,116.6-8.5c10.6-6.3,34.9-18.3,25.7-42.3
		c-9.2-23.9-30.6-84.5-83.1-45.8"/>
	<path class="st2" d="M228.2,234c0,0-11.7,10.7-7.3,24.9c4.4,14.2,13.2,28.8,35.1,21.5c22-7.3,59.8-24.9,65.4-25.1
		s18.1,5.1,18.6,6.1c0.5,1,1.5-61.5-24.7-57.8S228.2,234,228.2,234z"/>
	<circle class="st2" cx="254.3" cy="258.5" r="6.6"/>
	<circle class="st2" cx="282" cy="247.1" r="6.6"/>
	<circle class="st2" cx="313.1" cy="236.1" r="6.6"/>
	<path class="st1" d="M228.4,137.4c0,0-8.5,26.1-2.3,32.6c6.2,6.5,29.6,30.2,58.4,25.9c28.8-4.4,30.7-33.8,30.7-33.8
		s-9.7-8-21.3-7.5c-11.6,0.5-22.5-0.7-30-10.4C256.4,134.5,238.3,130.7,228.4,137.4z"/>
	<path class="st1" d="M233,126.1c0,0,16.5-5,25.8-1c9.3,3.9,12.4,19.9,27.4,19.2c15-0.7,20.3-1.7,26.1,3.1s7,4.9,7,4.9
		s12.1-28.8,1.9-43.8s-62.6-21.3-68.9-15.2C246,99.2,237.1,109.6,233,126.1z"/>
	<circle class="st0" cx="307.3" cy="120.9" r="6.6"/>
	<path class="st1" d="M401,68.8c-71,17.4-66.2,110.1,4.1,116.3c25.1,0.5,54.2-3.1,63.1-32.9s6-64.8-25.4-75.7S401,68.8,401,68.8z"/>
	<path class="st2" d="M410.4,61.9c-71,17.4-66.2,110.1,4.1,116.3C514.4,184,498.6,50.8,410.4,61.9z"/>
	<path class="st3" d="M409.2,154.1c0,0,13.1,9.9,23.5-6.8c10.4-16.7,12.6-26.2,5.6-29.7s-11.8-4.1-11.4-10.7
		c0.3-6.6,8.8-23.5,3.9-24.2c-4.8-0.7-6.7,1-11.8,8.1c-5.2,7.1-22.2,15.6-27.8,16.3c-5.6,0.7-20.5,12.8-15.2,21.5
		C381.2,137.4,409.2,154.1,409.2,154.1z"/>
	<path class="st1" d="M107.1,215.8c-56.4,48.2,21.4,129.7,73.3,83.8c21.1-18.7,34.3-41.7,20.6-64.8S158.7,176,107.1,215.8z"/>
	<path class="st2" d="M107.1,209.1c-56.4,48.2,21.4,129.6,73.3,83.8c21.1-18.7,34.3-41.7,20.6-64.8S158.7,169.3,107.1,209.1z"/>
	<path class="st0" d="M137.2,241.4c0,0-21.9-4.4-15.9,15.9s37.3,18.9,37.3,18.9s14.3-43.7-5.5-51.4
		C133.4,217.2,137.2,241.4,137.2,241.4z"/>
	<path class="st2" d="M378.8,126.7c0,0,1.2-14,7.5-14.2c6.3-0.2,22.2,0,27.6-8.9c5.3-8.9,14-16.7,14-16.7c4.4,0.2,7.6,0.5,4.6,11.4
		c-3,10.9-6.5,18.9-2.9,21.5c3.6,2.7,16.4,5.1,16,10.6c-0.5,5.6-13.5,32.9-23.7,34.8s-43-24.7-43-24.7S372.2,132.9,378.8,126.7z"/>
	<path class="st2" d="M226.1,131.6c0,0,19.7-10.6,34.5,3.4s18.9,16.2,32.2,16.2s23.5-0.5,20.8,7.3c-2.7,7.7-10.9,25.1-10.9,25.1
		s-10.4,8.8-20.5,6.6s-43.8-11.8-49.3-18.4c-5.6-6.5-11.7-12.1-9.2-26.1C226.1,131.6,226.1,131.6,226.1,131.6z"/>
	<path class="st2" d="M228.4,124.6c0,0,8.5-35.5,27.3-35.1c18.9,0.5,56.1,4.8,65.5,18.9c9.4,14,5.8,20.5,3.1,29.3
		c-2.7,8.7-6.3,14.5-6.3,14.5s-6.3-4.6-8.2-7.7c-1.9-3.1-20,1.2-23.7-0.2c-3.7-1.5-18.4-9.9-23.7-16.4S236.4,120.5,228.4,124.6z"/>
	<path class="st4" d="M308.9,434.9c0,0,8.6,8.6,14.2,17.1c5.5,8.5,36.7,60.5,59.1,38.4c22.4-22.1,0-103.8,0-103.8l-17.5-8.9
		c0,0,7,75.9,4.6,83c-2.5,7.1-6.9,2.8-13.5-3.1c-6.6-5.8-34.6-28.5-34.6-28.5L308.9,434.9z"/>
	<path class="st5" d="M397.8,319.1c0,0-16.5,2.6-26,29.7s-8.5,27.8-8.5,27.8l18.7,13.4L397.8,319.1"/>
	<path class="st6" d="M400.8,313.6c0,0-25,27.6-29.5,52.5c-4.4,24.8-3.3,32.4,1.9,42.8s10,35.8,9.8,52.8
		c-0.2,17.1-1.3,39.9-1.3,39.9h113.4l-41.3-120.4c0,0,30.8-18.9,47-22.2c0,0-11.7-42.9-25.6-45.3c-13.9-2.3-30.9-4.3-38.8-6.1
		C428.6,305.6,400.8,313.6,400.8,313.6z"/>
	<path class="st7" d="M440,337.7c0,0-1.2,11.8,10.1,34.9"/>
	<path class="st4" d="M317.4,398.6c0,0,31,3.5,34.9,5.8c3.8,2.3,28.2,20.2,28.2,20.2s86.3,17.9,93.1,14.1l-23.6-66.1
		c0,0,46.3-20.6,48.8-20.5c2.5,0.2,22.8,60.9,25.5,80.1c2.8,19.2,1.2,55.4-19.8,58s-111.8-38.6-131.1-47.7c0,0-18.2-7-20.2-9.5
		c0,0,2.4,5,0,5.4c-2.4,0.4-16.3-6.7-21.2-19.4c0,0-0.1-4.3,8.5-7.9c0,0-22.2-4-23.1-4.8C316.5,405.4,308.2,400.6,317.4,398.6z"/>
	<path class="st8" d="M284.6,397.1c0,0-0.7-3.3,3.3-3.6c4-0.3,25.3,0,25.3,0s3.7-0.3,5.3,3.6c1.6,3.9,27.3,43.5,27.3,43.5
		s0,3.9-3,3.7c-3-0.1-27.6,0.5-27.6,0.5L284.6,397.1z"/>
	<path class="st4" d="M288.7,405.3c0,0-0.8,15,2.2,20.8c3,5.8,7.9,16.4,22.2,11.1c14.3-5.3,13.6-10.5,11.9-10.5
		c-1.8,0-5.5-0.2-5.5-0.2s5.2-3.6,4.1-5.3c-1.1-1.7-4.1-3-5.9-2.4c-1.8,0.6,2.4-1.9,1.3-4.1c-1.1-2.2-2.5-2.9-5.8-2.5
		s-18.3,2.6-18.3,2.6L288.7,405.3z"/>
	<path class="st4" d="M416.9,294.5c-0.9-15.9-7.3-47.4-7.3-47.4l-44.9,17c0,0,0.4,14.5,4,20.1c0,0-6.3,4.9-5.4,6.6
		c0.9,1.7,6.3,1.1,7.6,2c1.3,0.9,13.7,24.2,26.5,14.1c0.7,1.4,1.4,3.3,1,5.1c-0.7,3.9-2.6,6.1-2.8,17.8c-0.2,11.7,0,44.3,0,44.3
		s34.1-65.4,45.6-70.8C449.8,299.3,428.4,296,416.9,294.5z"/>
	<path class="st9" d="M376.9,295.9c0,0,3.5-1.3,2.2-6.8"/>
	<path class="st9" d="M392.8,279.5c0,0-2.8-3.7,1.4-8"/>
	
		<ellipse transform="matrix(0.8928 -0.4505 0.4505 0.8928 -85.9367 199.1736)" class="st10" cx="375.5" cy="280.1" rx="1.8" ry="2.3"/>
	<path class="st11" d="M372,268c0,0-11.8,0.5-12.8-10.2c0,0-14.4-1.2-12.3-16.5c2.1-15.2,18.4-11.5,18.4-11.5s9.5-19.1,26.2-9.5
		c0,0,4.7-5.4,10.3-0.1c0,0,7.6-7.4,15.1,0.5c0,0,2.4-10.2,12.5-8.4c10.2,1.8,11.2,11.7,11.2,11.7s5.3-8.1,14.7-2.2
		c9.4,5.9,5.1,16.7,5.1,16.7s17.5,5.7,6.2,20c0,0,9.8,5.8,2.1,18.1c0,0,4.2,15-8.5,25.5c-12.8,10.5-26.7,4.2-26.7,4.2
		s-5.9,9.2-17.3,4c-11.5-5.2-5.6-13.3-5.6-13.3s-10.9-1.6-13.8-11.5c0,0,16.2-5.1,5.6-17.6c-3.1-2.9-15-3.7-15.4,9.7
		c0,0-1.7,1.6-3.1-5C383.9,272.8,376.9,276,372,268z"/>
</g>
</svg>
