<svg id="visual" viewBox="0 0 900 600" width="900" height="600" xmlns="http://www.w3.org/2000/svg" xmlns:xlink="http://www.w3.org/1999/xlink" version="1.1"><path d="M0 61L113 61L113 97L225 97L225 79L338 79L338 97L450 97L450 85L563 85L563 109L675 109L675 103L788 103L788 115L900 115L900 121L900 0L900 0L788 0L788 0L675 0L675 0L563 0L563 0L450 0L450 0L338 0L338 0L225 0L225 0L113 0L113 0L0 0Z" fill="#1a2f69"></path><path d="M0 139L113 139L113 175L225 175L225 169L338 169L338 157L450 157L450 169L563 169L563 163L675 163L675 151L788 151L788 193L900 193L900 181L900 119L900 113L788 113L788 101L675 101L675 107L563 107L563 83L450 83L450 95L338 95L338 77L225 77L225 95L113 95L113 59L0 59Z" fill="#004377"></path><path d="M0 301L113 301L113 331L225 331L225 337L338 337L338 301L450 301L450 283L563 283L563 301L675 301L675 313L788 313L788 325L900 325L900 289L900 179L900 191L788 191L788 149L675 149L675 161L563 161L563 167L450 167L450 155L338 155L338 167L225 167L225 173L113 173L113 137L0 137Z" fill="#005580"></path><path d="M0 361L113 361L113 373L225 373L225 385L338 385L338 373L450 373L450 349L563 349L563 361L675 361L675 373L788 373L788 379L900 379L900 331L900 287L900 323L788 323L788 311L675 311L675 299L563 299L563 281L450 281L450 299L338 299L338 335L225 335L225 329L113 329L113 299L0 299Z" fill="#006786"></path><path d="M0 409L113 409L113 409L225 409L225 439L338 439L338 421L450 421L450 385L563 385L563 403L675 403L675 421L788 421L788 421L900 421L900 385L900 329L900 377L788 377L788 371L675 371L675 359L563 359L563 347L450 347L450 371L338 371L338 383L225 383L225 371L113 371L113 359L0 359Z" fill="#007887"></path><path d="M0 547L113 547L113 547L225 547L225 553L338 553L338 547L450 547L450 565L563 565L563 553L675 553L675 553L788 553L788 565L900 565L900 565L900 383L900 419L788 419L788 419L675 419L675 401L563 401L563 383L450 383L450 419L338 419L338 437L225 437L225 407L113 407L113 407L0 407Z" fill="#00877d"></path><path d="M0 601L113 601L113 601L225 601L225 601L338 601L338 601L450 601L450 601L563 601L563 601L675 601L675 601L788 601L788 601L900 601L900 601L900 563L900 563L788 563L788 551L675 551L675 551L563 551L563 563L450 563L450 545L338 545L338 551L225 551L225 545L113 545L113 545L0 545Z" fill="#3b946a"></path></svg>